HIERARCHY
ROOT Hips
{
  OFFSET 2.26061 22.2878 23.7974
  CHANNELS 6 Xposition Yposition Zposition Zrotation Xrotation Yrotation
  JOINT LeftUpLeg
  {
    OFFSET 8.64259 1.95398 -2.38835
    CHANNELS 3 Zrotation Xrotation Yrotation
    JOINT LeftLeg
    {
      OFFSET 43.7702 0 0
      CHANNELS 3 Zrotation Xrotation Yrotation
      JOINT LeftFoot
      {
        OFFSET 40.6238 0 0
        CHANNELS 3 Zrotation Xrotation Yrotation
        JOINT LeftToeBase
        {
          OFFSET 12.7242 0 0
          CHANNELS 3 Zrotation Xrotation Yrotation
          End Site
          {
            OFFSET 0 0 0
          }
        }
      }
    }
  }
  JOINT RightUpLeg
  {
    OFFSET -8.2249 1.95398 -2.59336
    CHANNELS 3 Zrotation Xrotation Yrotation
    JOINT RightLeg
    {
      OFFSET 43.5653 0 0
      CHANNELS 3 Zrotation Xrotation Yrotation
      JOINT RightFoot
      {
        OFFSET 40.6238 0 0
        CHANNELS 3 Zrotation Xrotation Yrotation
        JOINT RightToeBase
        {
          OFFSET 12.7242 0 0
          CHANNELS 3 Zrotation Xrotation Yrotation
          End Site
          {
            OFFSET 0 0 0
          }
        }
      }
    }
  }
  JOINT Spine
  {
    OFFSET 0.165834 0.87714 6.61349
    CHANNELS 3 Zrotation Xrotation Yrotation
    JOINT Spine1
    {
      OFFSET 7.38963 1.71661e-005 0
      CHANNELS 3 Zrotation Xrotation Yrotation
      JOINT Spine2
      {
        OFFSET 11.9445 1.14441e-005 0
        CHANNELS 3 Zrotation Xrotation Yrotation
        JOINT Spine3
        {
          OFFSET 14.7254 4.19617e-005 0
          CHANNELS 3 Zrotation Xrotation Yrotation
          JOINT Spine4
          {
            OFFSET 10.9679 0 0
            CHANNELS 3 Zrotation Xrotation Yrotation
            JOINT RightShoulder
            {
              OFFSET 2.46616 -1.6653 3.69651
              CHANNELS 3 Zrotation Xrotation Yrotation
              JOINT RightArm
              {
                OFFSET 13.0012 0 0
                CHANNELS 3 Zrotation Xrotation Yrotation
                JOINT RightForeArm
                {
                  OFFSET 28.7848 1.52588e-005 0
                  CHANNELS 3 Zrotation Xrotation Yrotation
                  JOINT RightHand
                  {
                    OFFSET 26.5688 1.52588e-005 0
                    CHANNELS 3 Zrotation Xrotation Yrotation
                    End Site
                    {
                      OFFSET 0 0 0
                    }
                  }
                }
              }
            }
            JOINT LeftShoulder
            {
              OFFSET 2.38034 -1.29275 -3.7523
              CHANNELS 3 Zrotation Xrotation Yrotation
              JOINT LeftArm
              {
                OFFSET 16.3182 6.10351e-005 0
                CHANNELS 3 Zrotation Xrotation Yrotation
                JOINT LeftForeArm
                {
                  OFFSET 27.0901 0 0
                  CHANNELS 3 Zrotation Xrotation Yrotation
                  JOINT LeftHand
                  {
                    OFFSET 24.5451 1.52588e-005 0
                    CHANNELS 3 Zrotation Xrotation Yrotation
                    End Site
                    {
                      OFFSET 0 0 0
                    }
                  }
                }
              }
            }
            JOINT Neck
            {
              OFFSET 5.0226 -0.0266342 0
              CHANNELS 3 Zrotation Xrotation Yrotation
              JOINT Head
              {
                OFFSET 6.69363 2.86102e-005 0
                CHANNELS 3 Zrotation Xrotation Yrotation
                End Site
                {
                  OFFSET 0 0 0
                }
              }
            }
          }
        }
      }
    }
  }
}
MOTION
Frames:	18
Frame Time:	0.0416667
64.712 78.6831 -4.94735 -86.0544 -3.34726 -90.8215 179.769 49.0896 109.158 -64.6071 21.3454 2.81708 56.8106 0.0735175 9.78239 54.5942 20.0779 -0.0641307 178.163 44.4615 91.0003 -93.6681 6.98461 -2.73387 72.0551 -10.5809 -5.30902 48.9474 0.121736 -7.92252 -0.0796195 9.13124 -88.6882 8.59926 0.422017 2.56804 -3.0741 0.534583 2.54699 -25.5891 -0.369017 2.57619 -5.57642 -0.369027 2.57617 91.1687 -53.7264 -98.2739 19.0766 -8.20138 1.49767 -17.4415 -27.6724 -55.264 -11.7631 -1.05741 3.26545 -98.8679 -43.4285 63.1782 -5.96093 -16.9399 -0.164381 15.1437 2.17935 -75.5052 27.7594 2.61493 5.59547 -4.37742 -34.316 1.79222 -7.08076 -33.2941 -39.27 
63.8733 78.947 -5.89692 -84.9865 -0.720942 -90.8001 -179.178 48.2785 110.259 -63.296 21.2845 2.64509 56.6953 0.27533 11.289 55.0118 20.6318 0.822658 174.85 47.5248 92.5446 -93.8253 7.90309 -2.15635 72.1698 -10.6483 -5.31135 47.719 -0.033241 -9.68822 -0.263437 9.1138 -88.7457 8.63941 0.0300965 2.47944 -3.0339 0.139149 2.47571 -25.5512 -0.716254 2.37399 -5.53853 -0.716267 2.37398 91.0578 -53.9734 -98.3867 18.9914 -10.5448 4.96826 -19.6914 -31.1424 -56.5786 -9.72227 -0.942411 2.92047 -97.5702 -42.4331 64.8175 -6.66149 -13.6054 -1.60702 15.803 2.16425 -77.0733 30.5343 3.01178 6.12074 -3.96607 -33.3907 1.73106 -5.28486 -32.892 -37.8426 
62.7538 79.5221 -7.13605 -83.9387 1.96904 -91.2672 -177.616 46.2943 110.61 -60.9744 19.1187 2.534 57.0876 0.733745 10.3138 54.5063 20.5654 2.09762 172.346 50.3178 92.7025 -93.0537 9.68831 -1.74059 73.3083 -11.0706 -5.379 47.2199 0.238098 -7.05434 -0.378301 9.05636 -88.8042 8.75737 -0.223502 2.38108 -2.91574 -0.118526 2.38859 -25.4355 -0.928632 2.20397 -5.42287 -0.928628 2.20398 92.0425 -54.8476 -96.786 19.1957 -12.3168 9.31181 -22.0828 -32.0194 -58.6429 -6.12083 -0.787328 1.97337 -97.9267 -42.2224 64.1719 -5.7964 -10.6744 0.121183 19.2025 1.68555 -80.2198 27.1654 2.43735 5.19775 -2.15828 -32.8057 1.7528 -4.20377 -32.5937 -35.7247 
61.2436 80.5052 -8.87368 -83.6215 6.00643 -92.7566 -174.263 42.1114 110.115 -56.7236 18.6656 1.81787 55.5309 -0.454649 10.6872 55.7411 21.6542 2.46676 171.267 52.5784 91.1391 -91.8968 7.35042 -1.52092 70.8238 -9.29173 -4.74626 50.1276 -0.113106 -9.69997 -0.493707 8.98918 -88.9204 8.8953 -0.504255 2.17107 -2.77741 -0.408221 2.19115 -25.3014 -1.13334 1.91931 -5.28873 -1.1333 1.91932 92.1323 -54.0098 -96.8036 20.0487 -14.8955 14.4464 -21.1046 -30.9744 -60.1435 -9.69546 -0.790419 1.24209 -98.2797 -43.0214 63.9327 -6.34242 -6.73445 3.33397 18.7935 1.12203 -81.2932 26.8204 2.44965 5.36711 1.16275 -32.3027 4.68896 -4.28716 -32.3729 -34.6071 
59.177 82.0271 -11.2787 -83.5259 11.3767 -95.2526 -169.762 34.9307 109.171 -49.5941 17.4067 0.559974 54.0451 -1.8176 9.64734 55.7655 21.9173 3.33722 169.721 53.6703 89.5092 -89.4719 6.58296 -1.0657 69.8724 -8.01311 -4.17145 52.1832 -0.213778 -9.94703 -0.548162 8.82469 -88.994 9.22603 -0.642545 2.03947 -2.4464 -0.55216 2.06575 -24.9728 -1.2257 1.75222 -4.96012 -1.22569 1.75221 92.4723 -53.0345 -96.4751 21.454 -17.0439 19.4894 -21.5786 -30.4187 -62.3493 -11.2964 -0.774219 0.877973 -98.3149 -44.5474 64.4709 -7.91485 -1.71287 7.19953 22.9796 2.30117 -80.014 26.0706 2.76759 6.86915 3.10389 -30.8697 7.53667 -3.7731 -31.484 -33.1141 
56.5727 84.1729 -14.4654 -82.8193 17.4393 -98.5788 -166.112 24.6878 108.098 -38.2713 12.2903 -0.466446 52.2234 -3.38236 2.35333 52.8083 20.5401 7.50255 166.899 53.7472 88.5985 -85.771 5.70528 -0.13553 72.6246 -7.82549 -3.88696 48.8834 -0.314709 -11.7732 -0.522416 8.51452 -89.0503 9.84622 -0.610573 1.93323 -1.82608 -0.524965 1.95822 -24.3533 -1.16331 1.66048 -4.34069 -1.16332 1.66046 92.8103 -52.0744 -96.1363 23.6352 -16.9907 23.9606 -21.7069 -28.9773 -62.2631 -11.5068 -0.606796 -0.662723 -98.5637 -46.5181 64.8359 -11.0115 2.73453 11.3386 23.7043 4.70343 -75.3058 27.0802 3.09182 7.69474 3.43396 -28.8025 9.75087 -2.363 -30.0891 -30.2765 
53.6037 86.2782 -18.5442 -81.1787 23.1303 -102.776 -164.725 14.5689 106.621 -26.4303 6.14184 -0.565384 44.2419 -8.33089 -5.74706 49.2912 18.2304 11.1787 163.618 53.4762 87.8531 -81.595 4.43251 1.29414 72.6733 -6.89481 -3.44047 51.0653 0.0435724 -8.1917 -0.464035 8.19233 -89.055 10.4896 -0.490566 1.92133 -1.18271 -0.405564 1.94104 -23.7094 -1.04524 1.6852 -3.6967 -1.04524 1.68519 93.2647 -52.7908 -95.3354 23.0952 -17.3972 25.3207 -18.5909 -27.508 -61.3702 -11.9248 -0.605145 -0.645794 -98.2177 -47.4616 65.7007 -15.421 5.61169 14.5084 20.9449 7.53972 -68.0231 29.0875 3.29069 7.59437 2.48507 -26.4308 10.2623 0.529082 -28.289 -25.5373 
50.9868 88.0341 -23.2696 -78.6794 27.81 -106.595 -165.619 6.73027 105.363 -16.0516 2.09951 0.603291 32.5707 -13.1595 -12.3329 39.0443 9.0472 18.904 160.075 52.3084 88.9057 -77.2198 3.58781 3.36894 74.5792 -6.84277 -3.31065 48.8371 0.010131 -8.88145 -0.472424 7.94397 -89.2375 10.9873 -0.587282 1.57253 -0.684505 -0.51751 1.59684 -23.2149 -1.03271 1.32339 -3.20227 -1.0327 1.32339 92.3029 -53.4746 -96.6496 21.226 -16.1816 24.8481 -19.6681 -27.1573 -61.8757 -13.714 -0.589676 -0.810781 -97.1957 -48.2355 67.4955 -20.3363 7.24886 16.4449 15.8173 8.91814 -59.8567 30.8927 3.42003 7.34455 2.58177 -24.3087 12.1011 3.06859 -26.7773 -22.2278 
48.8723 89.0279 -28.5012 -75.0445 32.7101 -111.525 -168.92 3.89218 102.324 -15.9159 5.88071 1.98772 30.8645 -13.8397 -10.4518 32.3429 1.92978 15.5168 159.613 50.9165 89.8385 -73.1452 3.76355 4.6513 72.035 -5.42227 -2.7369 48.038 -0.170993 -11.105 -0.360598 7.85842 -89.3805 11.1582 -0.429811 1.27547 -0.513297 -0.373253 1.29313 -23.0452 -0.793254 1.08736 -3.03254 -0.793251 1.08735 93.4186 -55.456 -94.6895 16.5826 -14.4328 20.7385 -18.8066 -24.924 -62.067 -16.6469 -0.577868 -1.16124 -97.1582 -48.8582 67.7608 -25.0869 7.47125 18.6709 11.8163 8.66352 -54.193 32.9041 3.67268 7.4283 4.73627 -22.3341 14.06 5.24636 -25.5113 -19.9538 
47.014 88.6959 -33.5162 -70.3823 38.7761 -116.204 -171.496 7.65691 99.5112 -30.1834 10.3115 2.54235 39.6797 -10.3881 -6.3941 31.6273 1.20498 15.3475 161.663 47.1214 91.5487 -68.0939 3.14035 5.15639 69.1131 -4.22134 -2.27214 45.7384 0.408834 -5.26747 -0.146823 7.89742 -89.5499 11.0781 -0.0834036 0.904252 -0.593153 -0.0435342 0.907037 -23.126 -0.351302 0.837387 -3.11342 -0.351306 0.83737 93.9203 -57.1177 -93.7283 11.9011 -13.3242 15.0857 -18.9488 -22.0398 -65.306 -22.7548 -0.818747 -0.0947451 -96.8173 -49.366 68.4319 -29.5711 7.61646 21.8572 9.07332 7.45226 -50.9788 30.9604 3.43388 7.35993 7.11236 -20.2778 15.3638 7.52185 -24.1099 -17.8216 
45.3019 87.1962 -38.6646 -65.6412 45.0556 -119.949 -172.375 13.1143 98.3397 -46.6648 15.2292 2.14756 44.0323 -9.11782 -2.54511 34.2197 3.94677 12.8909 165.538 40.3739 93.6196 -64.4173 3.23188 4.94017 77.4198 -7.04258 -3.23903 45.4337 0.489484 -4.21997 0.143166 8.10311 -89.8131 10.667 0.371181 0.337656 -1.00389 0.385689 0.320995 -23.539 0.252555 0.433612 -3.52627 0.252553 0.433608 93.2311 -56.2579 -94.8375 10.3045 -10.861 8.97965 -22.4234 -19.2352 -70.2081 -28.0998 -1.12379 0.764081 -97.0524 -50.6109 68.4908 -33.0273 10.6905 24.6579 7.98584 8.63714 -48.0213 28.4663 3.1467 7.32912 10.216 -18.2313 17.6712 8.97914 -22.9652 -16.2989 
44.049 86.3254 -43.7631 -58.8582 48.5967 -125.219 -173.527 22.9321 97.1659 -61.5912 18.8851 1.49509 44.854 -8.40883 -2.19903 36.6122 6.28866 12.085 168.025 37.2276 95.8232 -61.7432 3.24007 4.15043 80.9158 -8.12926 -3.45377 45.2169 0.647055 -2.2472 0.486244 8.07204 -90.0255 10.7305 0.956592 -0.138841 -0.940138 0.949552 -0.180822 -23.478 0.954088 0.155102 -3.46538 0.954095 0.155095 92.7557 -55.0385 -95.7176 9.75723 -9.8354 3.74111 -24.4975 -14.2871 -76.037 -33.6214 -0.480063 -1.88269 -98.0473 -51.5625 67.3645 -35.8994 14.9388 26.9137 7.66316 12.0163 -43.6991 19.9551 1.65867 4.52527 13.1229 -16.5563 19.5731 9.65448 -22.0985 -15.0755 
42.8312 85.9725 -48.4698 -52.2731 53.8441 -130.904 -173.245 33 95.5237 -74.3499 18.8339 0.754752 45.1375 -8.22462 -1.9692 38.0402 7.67077 12.1462 170.339 32.7728 97.0058 -58.8988 1.58217 2.99775 80.9728 -8.81475 -3.74326 47.1155 0.768136 -1.46296 0.954118 8.24326 -90.1214 10.3905 1.84522 -0.402211 -1.27921 1.82573 -0.483064 -23.8247 1.88074 0.171141 -3.81202 1.88076 0.17114 91.7467 -51.5221 -97.8471 10.1126 -9.30116 -2.54678 -28.811 -7.75377 -85.5872 -34.7319 -0.472698 -1.8486 -97.9526 -51.7309 67.5553 -39.8226 17.4128 30.2814 8.83436 15.2247 -43.1626 10.9121 0.805924 3.248 15.7819 -14.8213 21.1665 9.14795 -21.1189 -14.6741 
41.5034 86.2701 -54.5476 -47.177 57.7884 -137.487 -171.352 41.6967 91.6415 -80.705 16.9671 0.0398937 46.358 -7.34873 -1.76697 36.8877 6.57362 13.2604 172.277 25.8055 94.8895 -53.344 -2.90264 1.68056 79.412 -8.45257 -3.71546 49.5621 0.73207 -2.61575 1.29226 8.23414 -89.9244 10.409 2.60903 -0.0784947 -1.25939 2.60304 -0.193328 -23.8145 2.51191 0.709761 -3.8019 2.51193 0.709766 91.9912 -48.1572 -98.1334 10.6513 -9.87959 -8.6866 -35.2825 -2.09327 -93.4781 -35.654 -0.547353 -1.32298 -97.1405 -50.7776 68.4168 -44.8594 19.8949 36.5487 11.4232 16.7609 -47.5484 4.58415 0.30571 2.19274 14.5532 -14.2613 20.7799 9.15105 -20.1165 -12.9409 
40.3802 87.5547 -62.2062 -42.4 59.0579 -144.75 -168.1 49.0088 85.979 -79.0362 17.9066 -0.934918 47.4002 -7.08225 -0.649283 38.0423 7.73564 13.8777 173.485 18.5793 91.9955 -44.7931 -6.27732 -0.322925 74.0973 -6.54211 -3.19387 50.6897 1.14408 0.359767 1.4882 7.97143 -89.514 10.9241 3.18775 0.665322 -0.743021 3.21395 0.524233 -23.303 2.84034 1.59329 -3.29033 2.84032 1.59328 92.5517 -45.6541 -97.7493 10.7051 -13.5731 -13.1637 -36.6473 4.27887 -98.4818 -36.9967 -0.513188 -1.46326 -96.2341 -49.1312 69.2173 -48.9855 20.3155 44.0095 15.5722 15.5638 -54.7287 1.12829 0.06608 0.751604 13.0339 -14.3454 19.4282 9.02728 -19.5215 -11.8061 
39.1671 89.9296 -70.5582 -40.5846 61.0117 -146.51 -167.703 52.4229 84.316 -71.2062 19.7793 -1.85178 51.3257 -5.04424 1.45808 37.4216 7.10133 13.2772 174.812 9.45281 91.3937 -33.5783 -9.96261 -2.09857 58.453 -0.930033 -0.412611 52.4863 1.7996 4.41944 1.67288 7.90381 -89.3275 11.0541 3.64194 0.987717 -0.612031 3.68187 0.826273 -23.1772 3.17661 2.03748 -3.16456 3.17661 2.03748 93.0371 -44.2545 -97.2373 12.83 -15.5602 -13.7752 -36.3177 10.0368 -103.205 -38.6344 -0.788298 -0.801022 -95.7149 -46.9906 69.3072 -51.1117 19.5689 48.8089 15.3197 11.6826 -58.869 2.66045 0.0762213 -0.583444 13.9463 -14.1464 17.3118 7.31159 -18.8373 -11.9803 
37.7524 92.4269 -79.4744 -37.233 61.9459 -150.013 -166.992 52.9807 82.6781 -57.1477 18.9514 -3.64885 54.0688 -3.74522 -0.484556 39.3339 9.00711 13.636 175.036 2.57769 90.2808 -22.7478 -15.5255 -3.67523 39.4806 5.29756 5.33131 44.3912 1.14935 4.72098 1.73173 7.78769 -89.0171 11.2741 3.90386 1.56903 -0.391723 3.96913 1.39547 -22.9544 3.25183 2.67045 -2.94171 3.25185 2.67046 92.2306 -43.8662 -98.6557 15.5157 -16.6812 -11.2497 -37.4453 11.5222 -104.987 -38.3937 -1.0611 0.026306 -95.9811 -45.5195 68.4128 -50.569 18.3669 49.6901 16.309 9.96487 -61.5372 4.88829 0.144102 -0.678419 15.4497 -13.7302 16.2132 5.23855 -18.2408 -12.9039 
36.0377 94.2199 -88.4736 -33.7218 62.2992 -152.67 -167.154 51.9015 82.4678 -40.9782 20.8218 -5.82954 54.832 -3.44635 1.62136 42.7825 12.3774 13.4333 176 0.550174 90.5873 -22.562 -17.444 -5.27801 34.1057 7.08396 7.70343 27.7691 0.336729 -3.93496 1.77622 7.69695 -88.9126 11.4497 4.04185 1.75604 -0.215921 4.1152 1.57622 -22.7783 3.3273 2.89027 -2.76571 3.32729 2.89026 92.7249 -43.7882 -97.8507 16.6794 -18.7225 -8.97251 -35.9122 8.58743 -103.214 -37.5696 -1.1365 0.146996 -97.3596 -45.9617 66.4576 -47.1784 18.5706 47.7831 16.6224 8.33272 -63.7089 7.07289 0.282848 0.147069 17.9881 -12.7527 15.899 2.12107 -17.2218 -13.0577 
